# xmcd
# 
# Track frame offsets:
#     150
#     21907
#     39358
#     62084
#     79916
#     97304
#     118426
#     140464
#     159951
#     190718
#     213176
#     231844
# 
# Disc length: 3278
# 
# Revision: 17
# Processed by: cddbd v1.5.2PL0 Copyright (c) Steve Scherf et al.
# Submitted via: fre:ac v1.0.31
# 
DISCID=a40ccc0c
DTITLE=B. B. King - 80
DYEAR=2005
DGENRE=Blues
TTITLE0=B. B. King - Van Morrison - Clem Clempson - Chris Stainton - Ian Thomas - Early in the morning
TTITLE1=B. B. King - Billy Gibbons - Robbie Buchanan - Leland Sklar - Gary Grant - Bill Reichenbach junior - Tired of your jive
TTITLE2=B. B. King - Eric Clapton - Clem Clempson - Chris Stainton - Ian Thomas - Luke Smith - David Campbell - The thrill is gone
TTITLE3=B. B. King - Sheryl Crow - Robbie Buchanan - Leland Sklar - Need your love so bad
TTITLE4=B. B. King - Daryl Hall - Larry Campbell - Brian Mitchell - Tom Wolk - Billy Ward - Gary Grant - Bill Reichenbach junior - Ain't nobody home?
TTITLE5=B. B. King - John Mayer - Larry Campbell - Brian Mitchell - Tom Wolk - Billy Ward - Robbie Buchanan - David Campbell - Hummingbird
TTITLE6=B. B. King - Mark Knopfler - Clem Clempson - Chris Stainton - Ian Thomas - All over again
TTITLE7=B. B. King - Glenn Frey - Robbie Buchanan - Leland Sklar - Gary Grant - Bill Reichenbach junior - Drivin' wheel
TTITLE8=B. B. King - Gloria Estefan - Larry Campbell - Brian Mitchell - Tom Wolk - Billy Ward - Robbie Buchanan - There must be a better world somewhere
TTITLE9=B. B. King - Roger Daltrey - Clem Clempson - Chris Stainton - Ian Thomas - Gary Grant - Bill Reichenbach junior - Never make your move too soon
TTITLE10=B. B. King - Bobby Bland - Robbie Buchanan - Leland Sklar - Funny how time slips away
TTITLE11=B. B. King - Elton John - Davey Johnstone - Guy Babylon - Nigel Olsson - Gary Grant - Bill Reichenbach junior - Rock this house
EXTD=YEAR: 2005
EXTT0=
EXTT1=
EXTT2=
EXTT3=
EXTT4=
EXTT5=
EXTT6=
EXTT7=
EXTT8=
EXTT9=
EXTT10=
EXTT11=
PLAYORDER=
